# Blender 3.4.0
# www.blender.org
mtllib arrow.mtl
o Arrow
v 3.000000 1.000000 0.000000
v 3.000000 0.000000 0.000000
v 3.000000 1.000000 0.000000
v 3.000000 0.000000 0.000000
v -1.000000 1.000000 -0.500000
v -1.000000 0.000000 -0.500000
v -1.000000 1.000000 0.500000
v -1.000000 0.000000 0.500000
v 2.000000 0.000000 -0.500000
v 2.000000 1.000000 0.500000
v 2.000000 0.000000 0.500000
v 2.000000 1.000000 -0.500000
v 2.000000 0.000000 1.000000
v 2.000000 1.000000 -1.000000
v 2.000000 0.000000 -1.000000
v 2.000000 1.000000 1.000000
vn -0.0000 1.0000 -0.0000
vn -0.0000 -0.0000 1.0000
vn -1.0000 -0.0000 -0.0000
vn -0.0000 -1.0000 -0.0000
vn 0.7071 -0.0000 -0.7071
vn -0.0000 -0.0000 -1.0000
vn 0.7071 -0.0000 0.7071
vt 0.625000 0.500000
vt 0.375000 0.500000
vt 0.625000 0.750000
vt 0.375000 0.750000
vt 0.875000 0.500000
vt 0.625000 0.250000
vt 0.375000 0.250000
vt 0.125000 0.500000
vt 0.875000 0.750000
vt 0.625000 1.000000
vt 0.625000 0.000000
vt 0.375000 1.000000
vt 0.375000 0.000000
vt 0.125000 0.750000
vt 0.375000 0.375000
vt 0.250000 0.500000
vt 0.625000 0.875000
vt 0.750000 0.750000
vt 0.375000 0.875000
vt 0.250000 0.750000
vt 0.750000 0.500000
vt 0.625000 0.375000
vt 0.375000 0.875000
vt 0.250000 0.750000
vt 0.750000 0.500000
vt 0.625000 0.375000
vt 0.375000 0.375000
vt 0.250000 0.500000
vt 0.750000 0.750000
vt 0.625000 0.875000
s 0
usemtl Material
f 12/21/1 5/5/1 7/9/1 10/18/1
f 11/19/2 10/17/2 7/10/2 8/12/2
f 8/13/3 7/11/3 5/6/3 6/7/3
f 15/28/4 2/2/4 4/4/4 13/24/4
f 2/2/1 1/1/1 3/3/1 4/4/1
f 15/27/5 14/26/5 1/1/5 2/2/5
f 6/7/6 5/6/6 12/22/6 9/15/6
f 6/8/4 9/16/4 11/20/4 8/14/4
f 13/23/3 16/30/3 10/17/3 11/19/3
f 14/25/3 12/21/3 10/18/3 16/29/3
f 1/1/1 14/25/1 16/29/1 3/3/1
f 4/4/7 3/3/7 16/30/7 13/23/7
f 9/15/3 12/22/3 14/26/3 15/27/3
f 9/16/1 15/28/1 13/24/1 11/20/1
